<svg id="Image" enable-background="new 0 0 64 64" height="64" viewBox="0 0 64 64" width="64" xmlns="http://www.w3.org/2000/svg"><g fill="none" stroke="#424242" stroke-linejoin="round" stroke-miterlimit="10" stroke-width="2"><path d="m50.891 49.366c4.794-4.3 8.109-9.687 8.109-15.366 0-5.08-3.75-6-6-6s-7 0-7-4c0-5 9-3.33 9-11 0-5-6-8-13-8-13.92 0-37 12.67-37 35 0 18.42 18.25 19 23 19 4.591 0 9.884-1.512 14.782-4.063"/><g stroke-linecap="round"><circle cx="42" cy="13" r="4"/><circle cx="28" cy="18" r="4"/><circle cx="17" cy="28" r="4"/><circle cx="14" cy="43" r="4"/><circle cx="26" cy="51" r="4"/><ellipse cx="49" cy="38" rx="5.956" ry="3.81" transform="matrix(.707 -.707 .707 .707 -12.519 45.774)"/><path d="m51.492 58.61-20.492-18.61 4-4 18.61 20.492v-.002c.24.27.39.62.39 1.01 0 .83-.67 1.5-1.5 1.5-.39 0-.74-.15-1.01-.39z"/><path d="m31.5 39.5c-7.708-1.75-6.343-12.649-4.474-14.5 0 7 7.974 2.775 7.974 10.854"/></g></g></svg>