<svg xmlns="http://www.w3.org/2000/svg" width="39.806" height="39.803" viewBox="0 0 39.806 39.803">
  <g id="chatbot_2_" data-name="chatbot (2)" transform="translate(-2 -2.001)">
    <path id="Path_20095" data-name="Path 20095" d="M31.646,12.178A15.259,15.259,0,1,0,4.5,25.634L2.05,31.606a.664.664,0,0,0,.614.916.657.657,0,0,0,.252-.05l5.972-2.454a15.157,15.157,0,0,0,3.289,1.626A15.253,15.253,0,0,0,34.92,39.3l5.97,2.449a.669.669,0,0,0,.252.05.664.664,0,0,0,.614-.916L39.3,34.918a15.241,15.241,0,0,0-7.654-22.74ZM8.964,28.606a.664.664,0,0,0-.252.05L3.881,30.641,5.866,25.81a.663.663,0,0,0-.068-.63,13.941,13.941,0,1,1,3.544,3.543.662.662,0,0,0-.377-.118Zm28.973,6.488,1.986,4.83L35.1,37.943a.664.664,0,0,0-.63.068,13.932,13.932,0,0,1-20.683-5.894A15.25,15.25,0,0,0,32.115,13.782,13.919,13.919,0,0,1,38,34.465a.664.664,0,0,0-.068.63Z" fill="#fff"/>
    <path id="Path_20096" data-name="Path 20096" d="M21.39,23.986,22.325,26a.664.664,0,0,0,1.2-.559l-3.61-7.772a.663.663,0,0,0-1.2,0L15.1,25.441a.664.664,0,0,0,.322.881.657.657,0,0,0,.279.062.664.664,0,0,0,.6-.384l.935-2.014H21.39Zm-2.073-4.463,1.457,3.137H17.859Z" transform="translate(-4.39 -5.144)" fill="#fff"/>
    <path id="Path_20097" data-name="Path 20097" d="M30.487,26.384a.663.663,0,0,0,.663-.663V17.948a.663.663,0,1,0-1.327,0V25.72A.663.663,0,0,0,30.487,26.384Z" transform="translate(-9.365 -5.144)" fill="#fff"/>
  </g>
</svg>
