<svg xmlns="http://www.w3.org/2000/svg" width="40.776" height="36.663" viewBox="0 0 40.776 36.663">
  <g id="code" transform="translate(-2.5 -7.291)">
    <path id="Path_20106" data-name="Path 20106" d="M45.985,7.421a2.038,2.038,0,0,0-2.625,1.2L31.128,41.235a2.038,2.038,0,0,0,1.2,2.625,2.149,2.149,0,0,0,2.625-1.2L47.181,10.046a2.038,2.038,0,0,0-1.2-2.625Z" transform="translate(-16.266 0)" fill="#fff"/>
    <path id="Path_20107" data-name="Path 20107" d="M81.885,36.279,74.308,28.7a.814.814,0,0,0-1.156,0l-1.726,1.726a.814.814,0,0,0,0,1.156l6.14,6.14-6.14,6.14a.814.814,0,0,0,0,1.156l1.726,1.726a.814.814,0,0,0,1.156,0l7.577-7.577a2.049,2.049,0,0,0,0-2.889Z" transform="translate(-39.204 -12.083)" fill="#fff"/>
    <path id="Path_20108" data-name="Path 20108" d="M13.562,30.447l-1.726-1.726a.814.814,0,0,0-1.156,0L3.1,36.29a2.039,2.039,0,0,0,0,2.881l7.577,7.577a.814.814,0,0,0,1.156,0l1.726-1.726a.814.814,0,0,0,0-1.156l-6.14-6.14,6.14-6.14a.8.8,0,0,0,.008-1.14Z" transform="translate(0 -12.094)" fill="#fff"/>
  </g>
</svg>
