<svg xmlns="http://www.w3.org/2000/svg" width="24.841" height="24.841" viewBox="0 0 24.841 24.841">
  <g id="cross" transform="translate(-1 -1)">
    <path id="Path_20109" data-name="Path 20109" d="M13.42,1a12.42,12.42,0,1,0,12.42,12.42A12.42,12.42,0,0,0,13.42,1Zm0,22.583A10.162,10.162,0,1,1,23.583,13.42,10.162,10.162,0,0,1,13.42,23.583Z" transform="translate(0 0)" fill="#666"/>
    <path id="Path_20110" data-name="Path 20110" d="M17.375,7.795a1.129,1.129,0,0,0-1.6,0l-3.193,3.194L9.392,7.795a1.129,1.129,0,1,0-1.6,1.6l3.193,3.194L7.8,15.78a1.129,1.129,0,1,0,1.6,1.6l3.193-3.194,3.193,3.194a1.129,1.129,0,1,0,1.6-1.6l-3.193-3.194,3.193-3.194a1.129,1.129,0,0,0,0-1.6Z" transform="translate(0.835 0.835)" fill="#666"/>
  </g>
</svg>
