<svg xmlns="http://www.w3.org/2000/svg" width="43.795" height="34.455" viewBox="0 0 43.795 34.455">
  <g id="Paint_tray" transform="translate(-32.873 -80.456)">
    <path id="Path_20101" data-name="Path 20101" d="M54.77,80.456c-12.074,0-21.9,7.722-21.9,17.213-.1,13.218,18.218,20.809,31.252,15.571a5.74,5.74,0,0,0,3.1-7.931l-1.655-3.246a2.2,2.2,0,0,1,3.3-2.734l1.707,1.322a3.772,3.772,0,0,0,3.988.4,3.726,3.726,0,0,0,2.1-3.385c0-9.492-9.823-17.213-21.9-17.213ZM73.437,98.739a1.206,1.206,0,0,1-1.281-.126l-1.707-1.322a4.782,4.782,0,0,0-7.172,5.943l1.654,3.242a3.144,3.144,0,0,1-1.7,4.348,24.2,24.2,0,0,1-8.457,1.482c-25.631-.816-25.637-28.457,0-29.275,10.653,0,19.321,6.566,19.321,14.679a1.127,1.127,0,0,1-.654,1.028Z" transform="translate(0)" fill="#fff"/>
    <path id="Path_20102" data-name="Path 20102" d="M200.491,271.442c-7.935-.8-9.116,8.374-1.238,9.608C207.161,281.9,208.393,272.647,200.491,271.442Zm-4.043,4.363c.512-2.8,6.872-2.317,6.847.882C202.5,279.841,196.154,278.548,196.448,275.806Z" transform="translate(-145.231 -172.199)" fill="#fff"/>
    <path id="Path_20103" data-name="Path 20103" d="M269.4,127.15a4.294,4.294,0,0,0,0,8.587A4.294,4.294,0,0,0,269.4,127.15Zm0,6.011a1.718,1.718,0,0,1,0-3.435A1.718,1.718,0,0,1,269.4,133.161Z" transform="translate(-209.476 -42.112)" fill="#fff"/>
    <path id="Path_20104" data-name="Path 20104" d="M168.339,131.8a4.294,4.294,0,0,0-8.587,0A4.294,4.294,0,0,0,168.339,131.8Zm-6.011,0a1.718,1.718,0,0,1,3.435,0A1.718,1.718,0,0,1,162.328,131.8Z" transform="translate(-114.427 -42.465)" fill="#fff"/>
    <path id="Path_20105" data-name="Path 20105" d="M84.4,194.71c-5.653-.35-6.375,7.92-.749,8.555A4.294,4.294,0,0,0,84.4,194.71Zm.729,5.593a1.717,1.717,0,0,1-2.207-2.631,1.717,1.717,0,0,1,2.207,2.631Z" transform="translate(-42.306 -103.032)" fill="#fff"/>
  </g>
</svg>
