<svg viewBox="0 0 512 512" xmlns="http://www.w3.org/2000/svg"><g id="Paint_tray"><path d="m256.0021 80.4563c-123.03 0-223.125 78.6816-223.125 175.3973-1.0211 134.6883 185.6341 212.0358 318.4436 158.6589 31.8854-11.0411 47.5824-51.0719 31.6162-80.8147l-16.8677-33.0778a22.3784 22.3784 0 0 1 33.6328-27.86l17.389 13.4711a38.4374 38.4374 0 0 0 40.64 4.1144 37.9694 37.9694 0 0 0 21.3965-34.4916c-.0004-96.716-100.0956-175.3976-223.1254-175.3976zm190.21 186.3006a12.2926 12.2926 0 0 1 -13.0566-1.286l-17.3889-13.4668c-40.8106-31.4571-96.3312 14.6567-73.0762 60.5589l16.8506 33.0379c8.84 16.3069.0983 38.2428-17.3633 44.3054a246.63 246.63 0 0 1 -86.1755 15.0989c-261.1734-8.3121-261.2332-289.9719.0021-298.2989 108.5526 0 196.8729 66.9067 196.8729 149.5745a11.48 11.48 0 0 1 -6.6652 10.4761z"/><path d="m260.9923 271.8967c-80.8563-8.1625-92.8918 85.3274-12.6123 97.9077 80.5786 8.6368 93.1311-85.6297 12.6123-97.9077zm-41.195 44.4633c5.2166-28.4909 70.0235-23.6075 69.7692 8.985-8.139 32.1355-72.7685 18.9517-69.7692-8.985z"/><path d="m308.5021 127.15c-57.8171 1.8393-57.8043 85.6692 0 87.5 57.8171-1.8393 57.8042-85.6693 0-87.5zm0 61.25c-22.9987-.41-22.9944-34.592 0-35 22.9986.41 22.9944 34.592 0 35z"/><path d="m247.2521 170.9c-1.8393-57.8171-85.6693-57.8043-87.5.0011 1.8393 57.816 85.6692 57.8031 87.5-.0011zm-61.25 0c.4123-22.9987 34.592-22.9944 35 0-.4121 22.9986-34.5921 22.9944-35 0z"/><path d="m126.88 194.8087c-57.6056-3.5633-64.9585 80.7046-7.6306 87.171 57.7421 3.3058 65.0928-80.3885 7.6306-87.171zm7.4255 56.99c-17.84 14.505-39.8514-11.7247-22.49-26.8139 17.8691-14.5015 39.883 11.7688 22.4898 26.8142z"/></g></svg>