<svg xmlns="http://www.w3.org/2000/svg" width="39.856" height="39.94" viewBox="0 0 39.856 39.94">
  <g id="phone-call" transform="translate(-0.539)">
    <g id="Group_30124" data-name="Group 30124" transform="translate(0.539 0)">
      <path id="Path_60619" data-name="Path 60619" d="M39.35,29.312l-5.574-5.574a3.707,3.707,0,0,0-6.171,1.393,3.793,3.793,0,0,1-4.379,2.389c-3.981-1-9.356-6.171-10.351-10.351a3.608,3.608,0,0,1,2.389-4.379,3.707,3.707,0,0,0,1.393-6.171L11.083,1.045a3.976,3.976,0,0,0-5.375,0L1.926,4.827c-3.782,3.981.4,14.532,9.754,23.888S31.587,42.45,35.568,38.469l3.782-3.782A3.976,3.976,0,0,0,39.35,29.312Z" transform="translate(-0.539 0)" fill="#fff"/>
    </g>
  </g>
</svg>
