<svg xmlns="http://www.w3.org/2000/svg" xmlns:xlink="http://www.w3.org/1999/xlink" width="500" zoomAndPan="magnify" viewBox="0 0 375 374.999991" height="500" preserveAspectRatio="xMidYMid meet" version="1.0"><defs><g/><clipPath id="23baeb5fbe"><path d="M 166 121.480469 L 209 121.480469 L 209 149 L 166 149 Z M 166 121.480469 " clip-rule="nonzero"/></clipPath><clipPath id="df7389a1f8"><path d="M 183 131 L 224.988281 131 L 224.988281 159 L 183 159 Z M 183 131 " clip-rule="nonzero"/></clipPath><clipPath id="e7a9a0712d"><path d="M 200 140 L 217 140 L 217 187.480469 L 200 187.480469 Z M 200 140 " clip-rule="nonzero"/></clipPath><clipPath id="7d29413c2f"><path d="M 166 160 L 209 160 L 209 187.480469 L 166 187.480469 Z M 166 160 " clip-rule="nonzero"/></clipPath><clipPath id="06eee3fcf0"><path d="M 149.988281 150 L 192 150 L 192 178 L 149.988281 178 Z M 149.988281 150 " clip-rule="nonzero"/></clipPath><clipPath id="526d57dfea"><path d="M 158 121.480469 L 175 121.480469 L 175 169 L 158 169 Z M 158 121.480469 " clip-rule="nonzero"/></clipPath></defs><g clip-path="url(#23baeb5fbe)"><path fill="#2aa873" d="M 173.527344 147.613281 C 174.246094 146.894531 174.691406 145.902344 174.691406 144.808594 C 174.691406 143.820312 174.328125 142.914062 173.726562 142.21875 L 182.652344 126.761719 L 200.507812 126.761719 C 200.707031 127.328125 201.03125 127.839844 201.449219 128.253906 C 202.167969 128.972656 203.15625 129.417969 204.253906 129.417969 C 205.347656 129.417969 206.339844 128.972656 207.054688 128.253906 C 207.773438 127.539062 208.21875 126.546875 208.21875 125.453125 C 208.21875 124.355469 207.773438 123.367188 207.054688 122.648438 C 206.339844 121.929688 205.347656 121.488281 204.253906 121.488281 C 203.15625 121.488281 202.167969 121.929688 201.449219 122.648438 C 201.03125 123.066406 200.707031 123.574219 200.507812 124.140625 L 181.148438 124.140625 L 180.769531 124.800781 L 171.46875 140.914062 C 171.226562 140.867188 170.976562 140.84375 170.722656 140.84375 C 169.628906 140.84375 168.636719 141.289062 167.921875 142.003906 C 167.203125 142.722656 166.757812 143.714844 166.757812 144.808594 C 166.757812 145.902344 167.203125 146.894531 167.921875 147.613281 C 168.636719 148.328125 169.628906 148.773438 170.722656 148.773438 C 171.820312 148.773438 172.808594 148.328125 173.527344 147.613281 Z M 169.773438 143.859375 C 170.015625 143.617188 170.351562 143.464844 170.722656 143.464844 C 171.09375 143.464844 171.433594 143.617188 171.675781 143.859375 C 171.917969 144.101562 172.066406 144.4375 172.066406 144.808594 C 172.066406 145.179688 171.917969 145.515625 171.675781 145.757812 C 171.433594 146 171.09375 146.152344 170.722656 146.152344 C 170.351562 146.152344 170.015625 146 169.773438 145.757812 C 169.53125 145.515625 169.378906 145.179688 169.378906 144.808594 C 169.378906 144.4375 169.53125 144.101562 169.773438 143.859375 Z M 203.300781 124.5 C 203.546875 124.257812 203.882812 124.109375 204.253906 124.109375 C 204.625 124.109375 204.960938 124.257812 205.203125 124.5 C 205.445312 124.746094 205.597656 125.082031 205.597656 125.453125 C 205.597656 125.824219 205.445312 126.160156 205.203125 126.402344 C 204.960938 126.644531 204.625 126.796875 204.253906 126.796875 C 203.882812 126.796875 203.546875 126.644531 203.300781 126.402344 C 203.058594 126.160156 202.910156 125.824219 202.910156 125.453125 C 202.910156 125.082031 203.058594 124.746094 203.300781 124.5 " fill-opacity="1" fill-rule="evenodd"/></g><g clip-path="url(#df7389a1f8)"><path fill="#57c59a" d="M 184.683594 137.933594 C 185.402344 138.652344 186.394531 139.09375 187.488281 139.09375 C 188.582031 139.09375 189.574219 138.652344 190.292969 137.933594 C 190.707031 137.515625 191.03125 137.007812 191.230469 136.441406 L 209.089844 136.441406 L 218.015625 151.898438 C 217.414062 152.59375 217.050781 153.496094 217.050781 154.488281 C 217.050781 155.582031 217.496094 156.574219 218.210938 157.289062 C 218.929688 158.007812 219.921875 158.453125 221.015625 158.453125 C 222.109375 158.453125 223.101562 158.007812 223.820312 157.289062 C 224.539062 156.574219 224.980469 155.582031 224.980469 154.488281 C 224.980469 153.390625 224.539062 152.402344 223.820312 151.683594 C 223.101562 150.964844 222.109375 150.523438 221.015625 150.523438 C 220.761719 150.523438 220.515625 150.546875 220.273438 150.589844 L 210.972656 134.480469 L 210.589844 133.820312 L 191.230469 133.820312 C 191.03125 133.25 190.707031 132.742188 190.292969 132.328125 C 189.574219 131.609375 188.582031 131.164062 187.488281 131.164062 C 186.394531 131.164062 185.402344 131.609375 184.683594 132.328125 C 183.96875 133.042969 183.523438 134.035156 183.523438 135.128906 C 183.523438 136.226562 183.96875 137.214844 184.683594 137.933594 Z M 186.539062 136.082031 C 186.292969 135.835938 186.144531 135.5 186.144531 135.128906 C 186.144531 134.757812 186.292969 134.421875 186.539062 134.179688 C 186.78125 133.9375 187.117188 133.785156 187.488281 133.785156 C 187.859375 133.785156 188.195312 133.9375 188.4375 134.179688 C 188.683594 134.421875 188.832031 134.757812 188.832031 135.128906 C 188.832031 135.5 188.683594 135.835938 188.4375 136.082031 C 188.195312 136.324219 187.859375 136.472656 187.488281 136.472656 C 187.117188 136.472656 186.78125 136.324219 186.539062 136.082031 Z M 220.066406 153.535156 C 220.308594 153.292969 220.644531 153.144531 221.015625 153.144531 C 221.386719 153.144531 221.722656 153.292969 221.964844 153.535156 C 222.210938 153.78125 222.359375 154.117188 222.359375 154.488281 C 222.359375 154.859375 222.210938 155.195312 221.964844 155.4375 C 221.722656 155.679688 221.386719 155.832031 221.015625 155.832031 C 220.644531 155.832031 220.308594 155.679688 220.066406 155.4375 C 219.824219 155.195312 219.671875 154.859375 219.671875 154.488281 C 219.671875 154.117188 219.824219 153.78125 220.066406 153.535156 " fill-opacity="1" fill-rule="evenodd"/></g><g clip-path="url(#e7a9a0712d)"><path fill="#6bcca6" d="M 200.285156 144.808594 C 200.285156 145.902344 200.730469 146.894531 201.449219 147.613281 C 202.167969 148.328125 203.15625 148.773438 204.253906 148.773438 C 204.507812 148.773438 204.753906 148.75 204.996094 148.703125 L 213.921875 164.164062 L 204.996094 179.625 C 204.753906 179.582031 204.507812 179.558594 204.253906 179.558594 C 203.15625 179.558594 202.167969 180 201.449219 180.71875 C 200.730469 181.4375 200.285156 182.429688 200.285156 183.523438 C 200.285156 184.617188 200.730469 185.609375 201.449219 186.324219 C 202.167969 187.042969 203.15625 187.488281 204.253906 187.488281 C 205.347656 187.488281 206.339844 187.042969 207.054688 186.324219 C 207.773438 185.609375 208.21875 184.617188 208.21875 183.523438 C 208.21875 182.53125 207.855469 181.628906 207.253906 180.933594 L 216.558594 164.816406 L 216.933594 164.164062 L 216.558594 163.515625 L 207.253906 147.398438 C 207.855469 146.703125 208.21875 145.796875 208.21875 144.808594 C 208.21875 143.714844 207.773438 142.722656 207.054688 142.003906 C 206.339844 141.289062 205.347656 140.84375 204.253906 140.84375 C 203.15625 140.84375 202.167969 141.289062 201.449219 142.003906 C 200.730469 142.722656 200.285156 143.714844 200.285156 144.808594 Z M 204.253906 146.152344 C 203.882812 146.152344 203.546875 146 203.300781 145.757812 C 203.058594 145.515625 202.910156 145.179688 202.910156 144.808594 C 202.910156 144.4375 203.058594 144.101562 203.300781 143.859375 C 203.546875 143.617188 203.882812 143.464844 204.253906 143.464844 C 204.625 143.464844 204.960938 143.617188 205.203125 143.859375 C 205.445312 144.101562 205.597656 144.4375 205.597656 144.808594 C 205.597656 145.179688 205.445312 145.515625 205.203125 145.757812 C 204.960938 146 204.625 146.152344 204.253906 146.152344 Z M 203.300781 182.574219 C 203.546875 182.328125 203.882812 182.179688 204.253906 182.179688 C 204.625 182.179688 204.960938 182.328125 205.203125 182.574219 C 205.445312 182.816406 205.597656 183.152344 205.597656 183.523438 C 205.597656 183.894531 205.445312 184.230469 205.203125 184.472656 C 204.960938 184.714844 204.625 184.867188 204.253906 184.867188 C 203.882812 184.867188 203.546875 184.714844 203.300781 184.472656 C 203.058594 184.230469 202.910156 183.894531 202.910156 183.523438 C 202.910156 183.152344 203.058594 182.816406 203.300781 182.574219 " fill-opacity="1" fill-rule="evenodd"/></g><g clip-path="url(#7d29413c2f)"><path fill="#96dbbe" d="M 204.253906 160.199219 C 203.15625 160.199219 202.167969 160.644531 201.449219 161.363281 C 200.730469 162.078125 200.285156 163.070312 200.285156 164.164062 C 200.285156 165.15625 200.648438 166.0625 201.25 166.753906 L 192.328125 182.210938 L 174.46875 182.210938 C 174.269531 181.644531 173.945312 181.136719 173.527344 180.71875 C 172.808594 180 171.820312 179.558594 170.722656 179.558594 C 169.628906 179.558594 168.636719 180 167.921875 180.71875 C 167.203125 181.4375 166.757812 182.429688 166.757812 183.523438 C 166.757812 184.617188 167.203125 185.609375 167.921875 186.324219 C 168.636719 187.042969 169.628906 187.488281 170.722656 187.488281 C 171.820312 187.488281 172.808594 187.042969 173.527344 186.324219 C 173.945312 185.910156 174.269531 185.402344 174.46875 184.832031 L 193.828125 184.832031 L 194.207031 184.171875 L 203.507812 168.0625 C 203.75 168.105469 204 168.128906 204.253906 168.128906 C 205.347656 168.128906 206.339844 167.6875 207.054688 166.96875 C 207.773438 166.25 208.21875 165.261719 208.21875 164.164062 C 208.21875 163.070312 207.773438 162.078125 207.054688 161.363281 C 206.339844 160.644531 205.347656 160.199219 204.253906 160.199219 Z M 202.910156 164.164062 C 202.910156 163.792969 203.058594 163.457031 203.300781 163.214844 C 203.542969 162.972656 203.882812 162.820312 204.253906 162.820312 C 204.625 162.820312 204.960938 162.972656 205.203125 163.214844 C 205.445312 163.457031 205.597656 163.792969 205.597656 164.164062 C 205.597656 164.535156 205.445312 164.871094 205.203125 165.117188 C 204.960938 165.359375 204.625 165.507812 204.253906 165.507812 C 203.882812 165.507812 203.542969 165.359375 203.300781 165.117188 C 203.058594 164.871094 202.910156 164.535156 202.910156 164.164062 Z M 169.773438 182.574219 C 170.015625 182.328125 170.351562 182.179688 170.722656 182.179688 C 171.09375 182.179688 171.433594 182.328125 171.675781 182.574219 C 171.917969 182.816406 172.066406 183.152344 172.066406 183.523438 C 172.066406 183.894531 171.917969 184.230469 171.675781 184.472656 C 171.433594 184.714844 171.09375 184.867188 170.722656 184.867188 C 170.351562 184.867188 170.015625 184.714844 169.773438 184.472656 C 169.53125 184.230469 169.378906 183.894531 169.378906 183.523438 C 169.378906 183.152344 169.53125 182.816406 169.773438 182.574219 " fill-opacity="1" fill-rule="evenodd"/></g><g clip-path="url(#06eee3fcf0)"><path fill="#116246" d="M 190.292969 171.039062 C 189.574219 170.324219 188.582031 169.878906 187.488281 169.878906 C 186.394531 169.878906 185.402344 170.324219 184.683594 171.039062 C 184.269531 171.457031 183.945312 171.964844 183.746094 172.535156 L 165.886719 172.535156 L 156.960938 157.078125 C 157.5625 156.382812 157.925781 155.476562 157.925781 154.488281 C 157.925781 153.390625 157.480469 152.402344 156.765625 151.683594 C 156.046875 150.964844 155.054688 150.523438 153.960938 150.523438 C 152.867188 150.523438 151.875 150.964844 151.15625 151.683594 C 150.4375 152.402344 149.996094 153.390625 149.996094 154.488281 C 149.996094 155.582031 150.4375 156.574219 151.15625 157.289062 C 151.875 158.007812 152.867188 158.453125 153.960938 158.453125 C 154.214844 158.453125 154.460938 158.429688 154.703125 158.382812 L 164.003906 174.496094 L 164.386719 175.15625 L 183.746094 175.15625 C 183.945312 175.722656 184.269531 176.230469 184.683594 176.648438 C 185.402344 177.363281 186.394531 177.808594 187.488281 177.808594 C 188.582031 177.808594 189.574219 177.363281 190.292969 176.648438 C 191.007812 175.929688 191.453125 174.9375 191.453125 173.84375 C 191.453125 172.75 191.007812 171.757812 190.292969 171.039062 Z M 186.539062 172.894531 C 186.78125 172.652344 187.117188 172.5 187.488281 172.5 C 187.859375 172.5 188.195312 172.652344 188.4375 172.894531 C 188.683594 173.136719 188.832031 173.472656 188.832031 173.84375 C 188.832031 174.214844 188.683594 174.550781 188.4375 174.792969 C 188.195312 175.039062 187.859375 175.1875 187.488281 175.1875 C 187.117188 175.1875 186.78125 175.039062 186.539062 174.792969 C 186.292969 174.550781 186.144531 174.214844 186.144531 173.84375 C 186.144531 173.472656 186.292969 173.136719 186.539062 172.894531 Z M 154.910156 153.535156 C 155.152344 153.78125 155.304688 154.117188 155.304688 154.488281 C 155.304688 154.859375 155.152344 155.195312 154.910156 155.4375 C 154.667969 155.679688 154.332031 155.832031 153.960938 155.832031 C 153.589844 155.832031 153.253906 155.679688 153.011719 155.4375 C 152.765625 155.195312 152.617188 154.859375 152.617188 154.488281 C 152.617188 154.117188 152.765625 153.78125 153.011719 153.535156 C 153.253906 153.292969 153.589844 153.144531 153.960938 153.144531 C 154.332031 153.144531 154.667969 153.292969 154.910156 153.535156 " fill-opacity="1" fill-rule="evenodd"/></g><g clip-path="url(#526d57dfea)"><path fill="#22755b" d="M 174.691406 164.164062 C 174.691406 163.070312 174.246094 162.078125 173.527344 161.363281 C 172.808594 160.644531 171.820312 160.199219 170.722656 160.199219 C 170.472656 160.199219 170.222656 160.222656 169.984375 160.269531 L 161.058594 144.804688 L 169.980469 129.347656 C 170.222656 129.394531 170.46875 129.417969 170.722656 129.417969 C 171.820312 129.417969 172.808594 128.972656 173.527344 128.253906 C 174.246094 127.539062 174.691406 126.546875 174.691406 125.453125 C 174.691406 124.355469 174.246094 123.367188 173.527344 122.648438 C 172.808594 121.929688 171.820312 121.488281 170.722656 121.488281 C 169.628906 121.488281 168.636719 121.929688 167.921875 122.648438 C 167.203125 123.367188 166.757812 124.355469 166.757812 125.453125 C 166.757812 126.441406 167.121094 127.347656 167.722656 128.042969 L 158.417969 144.160156 L 158.039062 144.8125 L 158.417969 145.464844 L 167.71875 161.578125 C 167.121094 162.273438 166.757812 163.175781 166.757812 164.164062 C 166.757812 165.261719 167.203125 166.25 167.921875 166.96875 C 168.636719 167.6875 169.628906 168.128906 170.722656 168.128906 C 171.820312 168.128906 172.808594 167.6875 173.527344 166.96875 C 174.246094 166.25 174.691406 165.261719 174.691406 164.164062 Z M 169.773438 163.214844 C 170.015625 162.972656 170.351562 162.820312 170.722656 162.820312 C 171.09375 162.820312 171.433594 162.972656 171.675781 163.214844 C 171.917969 163.457031 172.066406 163.792969 172.066406 164.164062 C 172.066406 164.535156 171.917969 164.871094 171.675781 165.117188 C 171.433594 165.359375 171.09375 165.507812 170.722656 165.507812 C 170.351562 165.507812 170.015625 165.359375 169.773438 165.117188 C 169.53125 164.871094 169.378906 164.535156 169.378906 164.164062 C 169.378906 163.792969 169.53125 163.457031 169.773438 163.214844 Z M 170.722656 126.796875 C 170.351562 126.796875 170.015625 126.644531 169.773438 126.402344 C 169.53125 126.160156 169.378906 125.824219 169.378906 125.453125 C 169.378906 125.082031 169.53125 124.746094 169.773438 124.5 C 170.015625 124.257812 170.351562 124.109375 170.722656 124.109375 C 171.09375 124.109375 171.433594 124.257812 171.675781 124.5 C 171.917969 124.746094 172.066406 125.082031 172.066406 125.453125 C 172.066406 125.824219 171.917969 126.160156 171.675781 126.402344 C 171.433594 126.644531 171.09375 126.796875 170.722656 126.796875 " fill-opacity="1" fill-rule="evenodd"/></g><g fill="#4aad84" fill-opacity="1"><g transform="translate(94.178853, 221.351587)"><g><path d="M 22.46875 -13.828125 L 22.46875 -17.285156 C 22.46875 -18.230469 22.128906 -19.039062 21.449219 -19.722656 C 20.769531 -20.402344 19.957031 -20.742188 19.011719 -20.742188 L 5.183594 -20.742188 L 5.183594 -10.371094 L 19.011719 -10.371094 C 19.957031 -10.371094 20.769531 -10.710938 21.449219 -11.390625 C 22.128906 -12.070312 22.46875 -12.882812 22.46875 -13.828125 Z M 25.925781 -17.285156 L 25.925781 -13.828125 C 25.925781 -12.605469 25.621094 -11.46875 25.007812 -10.421875 C 24.398438 -9.375 23.570312 -8.527344 22.519531 -7.882812 C 21.472656 -7.234375 20.300781 -6.914062 19.011719 -6.914062 L 5.183594 -6.914062 L 5.183594 0 L 1.726562 0 L 1.726562 -24.195312 L 19.011719 -24.195312 C 20.257812 -24.195312 21.390625 -23.886719 22.417969 -23.265625 C 23.441406 -22.640625 24.277344 -21.8125 24.921875 -20.773438 C 25.570312 -19.738281 25.902344 -18.574219 25.925781 -17.285156 Z M 25.925781 -17.285156 "/></g></g></g><g fill="#4aad84" fill-opacity="1"><g transform="translate(121.134597, 221.351587)"><g><path d="M 22.46875 -13.828125 L 22.46875 -17.285156 C 22.46875 -18.230469 22.128906 -19.039062 21.449219 -19.722656 C 20.769531 -20.402344 19.957031 -20.742188 19.011719 -20.742188 L 5.183594 -20.742188 L 5.183594 -10.371094 L 19.011719 -10.371094 C 19.957031 -10.371094 20.769531 -10.710938 21.449219 -11.390625 C 22.128906 -12.070312 22.46875 -12.882812 22.46875 -13.828125 Z M 25.925781 0 L 23.472656 0 L 16.558594 -6.914062 L 5.183594 -6.914062 L 5.183594 0 L 1.726562 0 L 1.726562 -24.195312 L 19.011719 -24.195312 C 20.234375 -24.195312 21.367188 -23.886719 22.417969 -23.265625 C 23.464844 -22.640625 24.3125 -21.8125 24.957031 -20.773438 C 25.601562 -19.738281 25.925781 -18.574219 25.925781 -17.285156 L 25.925781 -13.828125 C 25.925781 -12.351562 25.480469 -11.007812 24.59375 -9.800781 C 23.707031 -8.589844 22.550781 -7.742188 21.121094 -7.257812 L 25.925781 -2.453125 Z M 25.925781 0 "/></g></g></g><g fill="#4aad84" fill-opacity="1"><g transform="translate(148.435929, 221.351587)"><g><path d="M 22.125 -6.914062 L 22.125 -17.285156 C 22.125 -18.230469 21.785156 -19.039062 21.101562 -19.722656 C 20.421875 -20.402344 19.609375 -20.742188 18.667969 -20.742188 L 8.296875 -20.742188 C 7.351562 -20.742188 6.539062 -20.402344 5.859375 -19.722656 C 5.179688 -19.039062 4.839844 -18.230469 4.839844 -17.285156 L 4.839844 -6.914062 C 4.839844 -5.96875 5.179688 -5.15625 5.859375 -4.476562 C 6.539062 -3.796875 7.351562 -3.457031 8.296875 -3.457031 L 18.667969 -3.457031 C 19.609375 -3.457031 20.421875 -3.796875 21.101562 -4.476562 C 21.785156 -5.15625 22.125 -5.96875 22.125 -6.914062 Z M 25.578125 -17.285156 L 25.578125 -6.914062 C 25.578125 -5.644531 25.269531 -4.488281 24.648438 -3.441406 C 24.023438 -2.390625 23.1875 -1.554688 22.140625 -0.933594 C 21.09375 -0.3125 19.933594 0 18.667969 0 L 8.296875 0 C 7.027344 0 5.871094 -0.3125 4.820312 -0.933594 C 3.773438 -1.554688 2.9375 -2.390625 2.316406 -3.441406 C 1.695312 -4.488281 1.382812 -5.644531 1.382812 -6.914062 L 1.382812 -17.285156 C 1.382812 -18.550781 1.695312 -19.710938 2.316406 -20.757812 C 2.9375 -21.804688 3.773438 -22.640625 4.820312 -23.265625 C 5.871094 -23.886719 7.027344 -24.195312 8.296875 -24.195312 L 18.667969 -24.195312 C 19.886719 -24.195312 21.023438 -23.878906 22.070312 -23.246094 C 23.121094 -22.613281 23.96875 -21.777344 24.613281 -20.742188 C 25.257812 -19.703125 25.578125 -18.550781 25.578125 -17.285156 Z M 25.578125 -17.285156 "/></g></g></g><g fill="#4aad84" fill-opacity="1"><g transform="translate(175.391673, 221.351587)"><g><path d="M 24.195312 -20.742188 L 13.828125 -20.742188 L 13.828125 0 L 10.371094 0 L 10.371094 -20.742188 L 0 -20.742188 L 0 -24.195312 L 24.195312 -24.195312 Z M 24.195312 -20.742188 "/></g></g></g><g fill="#4aad84" fill-opacity="1"><g transform="translate(199.58273, 221.351587)"><g><path d="M 5.183594 -20.742188 L 5.183594 -13.828125 L 22.46875 -13.828125 L 22.46875 -10.371094 L 5.183594 -10.371094 L 5.183594 -3.457031 L 25.925781 -3.457031 L 25.925781 0 L 1.726562 0 L 1.726562 -24.195312 L 25.925781 -24.195312 L 25.925781 -20.742188 Z M 5.183594 -20.742188 "/></g></g></g><g fill="#4aad84" fill-opacity="1"><g transform="translate(226.538474, 221.351587)"><g><path d="M 8.296875 -24.195312 L 18.667969 -24.195312 C 19.910156 -24.195312 21.046875 -23.886719 22.070312 -23.265625 C 23.097656 -22.640625 23.933594 -21.8125 24.578125 -20.773438 C 25.222656 -19.738281 25.558594 -18.574219 25.578125 -17.285156 L 22.125 -17.285156 C 22.125 -18.230469 21.785156 -19.039062 21.101562 -19.722656 C 20.421875 -20.402344 19.609375 -20.742188 18.667969 -20.742188 L 8.296875 -20.742188 C 7.351562 -20.742188 6.539062 -20.402344 5.859375 -19.722656 C 5.179688 -19.039062 4.839844 -18.230469 4.839844 -17.285156 L 4.839844 -6.914062 C 4.839844 -5.96875 5.179688 -5.15625 5.859375 -4.476562 C 6.539062 -3.796875 7.351562 -3.457031 8.296875 -3.457031 L 18.667969 -3.457031 C 19.609375 -3.457031 20.421875 -3.796875 21.101562 -4.476562 C 21.785156 -5.15625 22.125 -5.96875 22.125 -6.914062 L 25.578125 -6.914062 C 25.578125 -5.691406 25.273438 -4.558594 24.664062 -3.507812 C 24.054688 -2.460938 23.222656 -1.613281 22.175781 -0.96875 C 21.125 -0.324219 19.957031 0 18.667969 0 L 8.296875 0 C 7.074219 0 5.933594 -0.304688 4.875 -0.917969 C 3.8125 -1.527344 2.96875 -2.355469 2.332031 -3.40625 C 1.699219 -4.453125 1.382812 -5.621094 1.382812 -6.914062 L 1.382812 -17.285156 C 1.382812 -18.527344 1.6875 -19.667969 2.296875 -20.707031 C 2.910156 -21.742188 3.738281 -22.578125 4.789062 -23.210938 C 5.835938 -23.847656 7.003906 -24.175781 8.296875 -24.195312 Z M 8.296875 -24.195312 "/></g></g></g><g fill="#4aad84" fill-opacity="1"><g transform="translate(253.148641, 221.351587)"><g><path d="M 5.183594 -24.195312 L 5.183594 -13.828125 L 22.46875 -13.828125 L 22.46875 -24.195312 L 25.925781 -24.195312 L 25.925781 0 L 22.46875 0 L 22.46875 -10.371094 L 5.183594 -10.371094 L 5.183594 0 L 1.726562 0 L 1.726562 -24.195312 Z M 5.183594 -24.195312 "/></g></g></g><g fill="#4aad84" fill-opacity="1"><g transform="translate(63.768699, 252.101585)"><g><path d="M 8.296875 -24.195312 L 18.667969 -24.195312 C 19.910156 -24.195312 21.046875 -23.886719 22.070312 -23.265625 C 23.097656 -22.640625 23.933594 -21.8125 24.578125 -20.773438 C 25.222656 -19.738281 25.558594 -18.574219 25.578125 -17.285156 L 22.125 -17.285156 C 22.125 -18.230469 21.785156 -19.039062 21.101562 -19.722656 C 20.421875 -20.402344 19.609375 -20.742188 18.667969 -20.742188 L 8.296875 -20.742188 C 7.351562 -20.742188 6.539062 -20.402344 5.859375 -19.722656 C 5.179688 -19.039062 4.839844 -18.230469 4.839844 -17.285156 L 4.839844 -6.914062 C 4.839844 -5.96875 5.179688 -5.15625 5.859375 -4.476562 C 6.539062 -3.796875 7.351562 -3.457031 8.296875 -3.457031 L 18.667969 -3.457031 C 19.609375 -3.457031 20.421875 -3.796875 21.101562 -4.476562 C 21.785156 -5.15625 22.125 -5.96875 22.125 -6.914062 L 25.578125 -6.914062 C 25.578125 -5.691406 25.273438 -4.558594 24.664062 -3.507812 C 24.054688 -2.460938 23.222656 -1.613281 22.175781 -0.96875 C 21.125 -0.324219 19.957031 0 18.667969 0 L 8.296875 0 C 7.074219 0 5.933594 -0.304688 4.875 -0.917969 C 3.8125 -1.527344 2.96875 -2.355469 2.332031 -3.40625 C 1.699219 -4.453125 1.382812 -5.621094 1.382812 -6.914062 L 1.382812 -17.285156 C 1.382812 -18.527344 1.6875 -19.667969 2.296875 -20.707031 C 2.910156 -21.742188 3.738281 -22.578125 4.789062 -23.210938 C 5.835938 -23.847656 7.003906 -24.175781 8.296875 -24.195312 Z M 8.296875 -24.195312 "/></g></g></g><g fill="#4aad84" fill-opacity="1"><g transform="translate(90.378866, 252.101585)"><g><path d="M 22.125 -6.914062 L 22.125 -17.285156 C 22.125 -18.230469 21.785156 -19.039062 21.101562 -19.722656 C 20.421875 -20.402344 19.609375 -20.742188 18.667969 -20.742188 L 8.296875 -20.742188 C 7.351562 -20.742188 6.539062 -20.402344 5.859375 -19.722656 C 5.179688 -19.039062 4.839844 -18.230469 4.839844 -17.285156 L 4.839844 -6.914062 C 4.839844 -5.96875 5.179688 -5.15625 5.859375 -4.476562 C 6.539062 -3.796875 7.351562 -3.457031 8.296875 -3.457031 L 18.667969 -3.457031 C 19.609375 -3.457031 20.421875 -3.796875 21.101562 -4.476562 C 21.785156 -5.15625 22.125 -5.96875 22.125 -6.914062 Z M 25.578125 -17.285156 L 25.578125 -6.914062 C 25.578125 -5.644531 25.269531 -4.488281 24.648438 -3.441406 C 24.023438 -2.390625 23.1875 -1.554688 22.140625 -0.933594 C 21.09375 -0.3125 19.933594 0 18.667969 0 L 8.296875 0 C 7.027344 0 5.871094 -0.3125 4.820312 -0.933594 C 3.773438 -1.554688 2.9375 -2.390625 2.316406 -3.441406 C 1.695312 -4.488281 1.382812 -5.644531 1.382812 -6.914062 L 1.382812 -17.285156 C 1.382812 -18.550781 1.695312 -19.710938 2.316406 -20.757812 C 2.9375 -21.804688 3.773438 -22.640625 4.820312 -23.265625 C 5.871094 -23.886719 7.027344 -24.195312 8.296875 -24.195312 L 18.667969 -24.195312 C 19.886719 -24.195312 21.023438 -23.878906 22.070312 -23.246094 C 23.121094 -22.613281 23.96875 -21.777344 24.613281 -20.742188 C 25.257812 -19.703125 25.578125 -18.550781 25.578125 -17.285156 Z M 25.578125 -17.285156 "/></g></g></g><g fill="#4aad84" fill-opacity="1"><g transform="translate(117.33461, 252.101585)"><g><path d="M 25.925781 -24.195312 L 25.925781 0 L 22.46875 0 L 5.183594 -18.597656 L 5.183594 0 L 1.726562 0 L 1.726562 -24.195312 L 5.183594 -24.195312 L 22.46875 -5.875 L 22.46875 -24.195312 Z M 25.925781 -24.195312 "/></g></g></g><g fill="#4aad84" fill-opacity="1"><g transform="translate(144.981531, 252.101585)"><g><path d="M 25.578125 -6.914062 C 25.578125 -5.691406 25.273438 -4.558594 24.664062 -3.507812 C 24.054688 -2.460938 23.222656 -1.613281 22.175781 -0.96875 C 21.125 -0.324219 19.957031 0 18.667969 0 L 8.296875 0 C 7.050781 0 5.910156 -0.304688 4.875 -0.917969 C 3.835938 -1.527344 3.007812 -2.355469 2.386719 -3.40625 C 1.761719 -4.453125 1.429688 -5.621094 1.382812 -6.914062 L 4.839844 -6.914062 C 4.839844 -5.96875 5.179688 -5.15625 5.859375 -4.476562 C 6.539062 -3.796875 7.351562 -3.457031 8.296875 -3.457031 L 18.667969 -3.457031 C 19.609375 -3.457031 20.421875 -3.796875 21.101562 -4.476562 C 21.785156 -5.15625 22.125 -5.96875 22.125 -6.914062 C 22.125 -7.859375 21.785156 -8.671875 21.101562 -9.351562 C 20.421875 -10.03125 19.609375 -10.371094 18.667969 -10.371094 L 8.296875 -10.371094 C 7.074219 -10.371094 5.933594 -10.675781 4.875 -11.285156 C 3.8125 -11.898438 2.96875 -12.726562 2.332031 -13.773438 C 1.699219 -14.824219 1.382812 -15.992188 1.382812 -17.285156 C 1.382812 -18.503906 1.6875 -19.640625 2.296875 -20.6875 C 2.910156 -21.738281 3.738281 -22.585938 4.789062 -23.230469 C 5.835938 -23.875 7.003906 -24.195312 8.296875 -24.195312 L 18.667969 -24.195312 C 19.910156 -24.195312 21.046875 -23.886719 22.070312 -23.265625 C 23.097656 -22.640625 23.933594 -21.8125 24.578125 -20.773438 C 25.222656 -19.738281 25.558594 -18.574219 25.578125 -17.285156 L 22.125 -17.285156 C 22.125 -18.230469 21.785156 -19.039062 21.101562 -19.722656 C 20.421875 -20.402344 19.609375 -20.742188 18.667969 -20.742188 L 8.296875 -20.742188 C 7.351562 -20.742188 6.539062 -20.402344 5.859375 -19.722656 C 5.179688 -19.039062 4.839844 -18.230469 4.839844 -17.285156 C 4.839844 -16.339844 5.179688 -15.527344 5.859375 -14.847656 C 6.539062 -14.167969 7.351562 -13.828125 8.296875 -13.828125 L 18.667969 -13.828125 C 19.886719 -13.828125 21.023438 -13.515625 22.070312 -12.894531 C 23.121094 -12.269531 23.96875 -11.441406 24.613281 -10.40625 C 25.257812 -9.367188 25.578125 -8.203125 25.578125 -6.914062 Z M 25.578125 -6.914062 "/></g></g></g><g fill="#4aad84" fill-opacity="1"><g transform="translate(171.937275, 252.101585)"><g><path d="M 22.46875 -6.914062 L 22.46875 -24.195312 L 25.925781 -24.195312 L 25.925781 -6.914062 C 25.925781 -5.691406 25.621094 -4.558594 25.007812 -3.507812 C 24.398438 -2.460938 23.570312 -1.613281 22.519531 -0.96875 C 21.472656 -0.324219 20.300781 0 19.011719 0 L 8.640625 0 C 7.421875 0 6.28125 -0.304688 5.21875 -0.917969 C 4.160156 -1.527344 3.3125 -2.355469 2.679688 -3.40625 C 2.046875 -4.453125 1.726562 -5.621094 1.726562 -6.914062 L 1.726562 -24.195312 L 5.183594 -24.195312 L 5.183594 -6.914062 C 5.183594 -5.96875 5.523438 -5.15625 6.203125 -4.476562 C 6.882812 -3.796875 7.695312 -3.457031 8.640625 -3.457031 L 19.011719 -3.457031 C 19.957031 -3.457031 20.769531 -3.796875 21.449219 -4.476562 C 22.128906 -5.15625 22.46875 -5.96875 22.46875 -6.914062 Z M 22.46875 -6.914062 "/></g></g></g><g fill="#4aad84" fill-opacity="1"><g transform="translate(199.584196, 252.101585)"><g><path d="M 5.183594 -24.195312 L 5.183594 -3.457031 L 25.925781 -3.457031 L 25.925781 0 L 1.726562 0 L 1.726562 -24.195312 Z M 5.183594 -24.195312 "/></g></g></g><g fill="#4aad84" fill-opacity="1"><g transform="translate(225.503185, 252.101585)"><g><path d="M 24.195312 -20.742188 L 13.828125 -20.742188 L 13.828125 0 L 10.371094 0 L 10.371094 -20.742188 L 0 -20.742188 L 0 -24.195312 L 24.195312 -24.195312 Z M 24.195312 -20.742188 "/></g></g></g><g fill="#4aad84" fill-opacity="1"><g transform="translate(249.694242, 252.101585)"><g><path d="M 1.726562 -24.195312 L 5.183594 -24.195312 L 5.183594 0 L 1.726562 0 Z M 1.726562 -24.195312 "/></g></g></g><g fill="#4aad84" fill-opacity="1"><g transform="translate(256.605981, 252.101585)"><g><path d="M 25.925781 -24.195312 L 25.925781 0 L 22.46875 0 L 5.183594 -18.597656 L 5.183594 0 L 1.726562 0 L 1.726562 -24.195312 L 5.183594 -24.195312 L 22.46875 -5.875 L 22.46875 -24.195312 Z M 25.925781 -24.195312 "/></g></g></g><g fill="#4aad84" fill-opacity="1"><g transform="translate(284.252891, 252.101585)"><g><path d="M 11.753906 -10.371094 L 11.753906 -13.828125 L 25.578125 -13.828125 L 25.578125 -6.914062 C 25.578125 -5.691406 25.273438 -4.558594 24.664062 -3.507812 C 24.054688 -2.460938 23.222656 -1.613281 22.175781 -0.96875 C 21.125 -0.324219 19.957031 0 18.667969 0 L 8.296875 0 C 7.074219 0 5.933594 -0.304688 4.875 -0.917969 C 3.8125 -1.527344 2.96875 -2.355469 2.332031 -3.40625 C 1.699219 -4.453125 1.382812 -5.621094 1.382812 -6.914062 L 1.382812 -17.285156 C 1.382812 -18.503906 1.6875 -19.640625 2.296875 -20.6875 C 2.910156 -21.738281 3.738281 -22.585938 4.789062 -23.230469 C 5.835938 -23.875 7.003906 -24.195312 8.296875 -24.195312 L 18.667969 -24.195312 C 19.910156 -24.195312 21.046875 -23.886719 22.070312 -23.265625 C 23.097656 -22.640625 23.933594 -21.8125 24.578125 -20.773438 C 25.222656 -19.738281 25.558594 -18.574219 25.578125 -17.285156 L 22.125 -17.285156 C 22.125 -18.230469 21.785156 -19.039062 21.101562 -19.722656 C 20.421875 -20.402344 19.609375 -20.742188 18.667969 -20.742188 L 8.296875 -20.742188 C 7.351562 -20.742188 6.539062 -20.402344 5.859375 -19.722656 C 5.179688 -19.039062 4.839844 -18.230469 4.839844 -17.285156 L 4.839844 -6.914062 C 4.839844 -5.96875 5.179688 -5.15625 5.859375 -4.476562 C 6.539062 -3.796875 7.351562 -3.457031 8.296875 -3.457031 L 18.667969 -3.457031 C 19.609375 -3.457031 20.421875 -3.796875 21.101562 -4.476562 C 21.785156 -5.15625 22.125 -5.96875 22.125 -6.914062 L 22.125 -10.371094 Z M 11.753906 -10.371094 "/></g></g></g><g fill="#3d6554" fill-opacity="1"><g transform="translate(96.947078, 276.273263)"><g><path d="M 0.96875 0 L 0.96875 -8.109375 L 6.296875 -8.109375 L 6.296875 -6.546875 L 2.796875 -6.546875 L 2.796875 -4.875 L 5.984375 -4.875 L 5.984375 -3.328125 L 2.796875 -3.328125 L 2.796875 -1.5625 L 6.421875 -1.5625 L 6.421875 0 Z M 0.96875 0 "/></g></g></g><g fill="#3d6554" fill-opacity="1"><g transform="translate(106.756866, 276.273263)"><g><path d="M 0.96875 0 L 0.96875 -8.109375 L 6.0625 -8.109375 L 6.0625 -6.4375 L 2.8125 -6.4375 L 2.8125 -4.40625 L 5.75 -4.40625 L 5.75 -2.796875 L 2.8125 -2.796875 L 2.8125 0 Z M 0.96875 0 "/></g></g></g><g fill="#3d6554" fill-opacity="1"><g transform="translate(116.115561, 276.273263)"><g><path d="M 0.96875 0 L 0.96875 -8.109375 L 6.0625 -8.109375 L 6.0625 -6.4375 L 2.8125 -6.4375 L 2.8125 -4.40625 L 5.75 -4.40625 L 5.75 -2.796875 L 2.8125 -2.796875 L 2.8125 0 Z M 0.96875 0 "/></g></g></g><g fill="#3d6554" fill-opacity="1"><g transform="translate(125.474256, 276.273263)"><g><path d="M 0.96875 0 L 0.96875 -8.109375 L 2.8125 -8.109375 L 2.8125 0 Z M 0.96875 0 "/></g></g></g><g fill="#3d6554" fill-opacity="1"><g transform="translate(132.057017, 276.273263)"><g><path d="M 4.6875 0.15625 C 3.875 0.15625 3.148438 -0.0195312 2.515625 -0.375 C 1.878906 -0.738281 1.382812 -1.234375 1.03125 -1.859375 C 0.675781 -2.492188 0.5 -3.222656 0.5 -4.046875 C 0.5 -4.878906 0.675781 -5.609375 1.03125 -6.234375 C 1.382812 -6.867188 1.875 -7.363281 2.5 -7.71875 C 3.132812 -8.082031 3.859375 -8.265625 4.671875 -8.265625 C 5.359375 -8.265625 5.988281 -8.132812 6.5625 -7.875 C 7.132812 -7.613281 7.613281 -7.242188 8 -6.765625 C 8.394531 -6.285156 8.671875 -5.722656 8.828125 -5.078125 L 6.921875 -5.078125 C 6.765625 -5.523438 6.488281 -5.875 6.09375 -6.125 C 5.707031 -6.382812 5.253906 -6.515625 4.734375 -6.515625 C 4.273438 -6.515625 3.863281 -6.410156 3.5 -6.203125 C 3.144531 -5.992188 2.867188 -5.703125 2.671875 -5.328125 C 2.472656 -4.960938 2.375 -4.535156 2.375 -4.046875 C 2.375 -3.566406 2.472656 -3.140625 2.671875 -2.765625 C 2.867188 -2.398438 3.144531 -2.113281 3.5 -1.90625 C 3.863281 -1.695312 4.269531 -1.59375 4.71875 -1.59375 C 5.25 -1.59375 5.71875 -1.726562 6.125 -2 C 6.53125 -2.269531 6.816406 -2.640625 6.984375 -3.109375 L 8.875 -3.109375 C 8.75 -2.453125 8.488281 -1.875 8.09375 -1.375 C 7.695312 -0.882812 7.207031 -0.503906 6.625 -0.234375 C 6.039062 0.0234375 5.394531 0.15625 4.6875 0.15625 Z M 4.6875 0.15625 "/></g></g></g><g fill="#3d6554" fill-opacity="1"><g transform="translate(144.19165, 276.273263)"><g><path d="M 0.96875 0 L 0.96875 -8.109375 L 2.8125 -8.109375 L 2.8125 0 Z M 0.96875 0 "/></g></g></g><g fill="#3d6554" fill-opacity="1"><g transform="translate(150.774412, 276.273263)"><g><path d="M 0.96875 0 L 0.96875 -8.109375 L 6.296875 -8.109375 L 6.296875 -6.546875 L 2.796875 -6.546875 L 2.796875 -4.875 L 5.984375 -4.875 L 5.984375 -3.328125 L 2.796875 -3.328125 L 2.796875 -1.5625 L 6.421875 -1.5625 L 6.421875 0 Z M 0.96875 0 "/></g></g></g><g fill="#3d6554" fill-opacity="1"><g transform="translate(160.584201, 276.273263)"><g><path d="M 0.96875 0 L 0.96875 -8.109375 L 2.53125 -8.109375 L 6.109375 -3.171875 L 6.109375 -8.109375 L 7.9375 -8.109375 L 7.9375 0 L 6.375 0 L 2.796875 -4.96875 L 2.796875 0 Z M 0.96875 0 "/></g></g></g><g fill="#3d6554" fill-opacity="1"><g transform="translate(172.290871, 276.273263)"><g><path d="M 4.6875 0.15625 C 3.875 0.15625 3.148438 -0.0195312 2.515625 -0.375 C 1.878906 -0.738281 1.382812 -1.234375 1.03125 -1.859375 C 0.675781 -2.492188 0.5 -3.222656 0.5 -4.046875 C 0.5 -4.878906 0.675781 -5.609375 1.03125 -6.234375 C 1.382812 -6.867188 1.875 -7.363281 2.5 -7.71875 C 3.132812 -8.082031 3.859375 -8.265625 4.671875 -8.265625 C 5.359375 -8.265625 5.988281 -8.132812 6.5625 -7.875 C 7.132812 -7.613281 7.613281 -7.242188 8 -6.765625 C 8.394531 -6.285156 8.671875 -5.722656 8.828125 -5.078125 L 6.921875 -5.078125 C 6.765625 -5.523438 6.488281 -5.875 6.09375 -6.125 C 5.707031 -6.382812 5.253906 -6.515625 4.734375 -6.515625 C 4.273438 -6.515625 3.863281 -6.410156 3.5 -6.203125 C 3.144531 -5.992188 2.867188 -5.703125 2.671875 -5.328125 C 2.472656 -4.960938 2.375 -4.535156 2.375 -4.046875 C 2.375 -3.566406 2.472656 -3.140625 2.671875 -2.765625 C 2.867188 -2.398438 3.144531 -2.113281 3.5 -1.90625 C 3.863281 -1.695312 4.269531 -1.59375 4.71875 -1.59375 C 5.25 -1.59375 5.71875 -1.726562 6.125 -2 C 6.53125 -2.269531 6.816406 -2.640625 6.984375 -3.109375 L 8.875 -3.109375 C 8.75 -2.453125 8.488281 -1.875 8.09375 -1.375 C 7.695312 -0.882812 7.207031 -0.503906 6.625 -0.234375 C 6.039062 0.0234375 5.394531 0.15625 4.6875 0.15625 Z M 4.6875 0.15625 "/></g></g></g><g fill="#3d6554" fill-opacity="1"><g transform="translate(184.425504, 276.273263)"><g><path d="M 3.09375 0 L 3.09375 -2.84375 L 0.109375 -8.109375 L 2.203125 -8.109375 L 3.203125 -6.234375 L 4.015625 -4.765625 L 4.8125 -6.234375 L 5.8125 -8.109375 L 7.90625 -8.109375 L 4.9375 -2.859375 L 4.9375 0 Z M 3.09375 0 "/></g></g></g><g fill="#3d6554" fill-opacity="1"><g transform="translate(195.229996, 276.273263)"><g/></g></g><g fill="#3d6554" fill-opacity="1"><g transform="translate(200.748646, 276.273263)"><g><path d="M 0.109375 0 L 3.328125 -8.109375 L 5.125 -8.109375 L 8.34375 0 L 6.375 0 L 5.828125 -1.40625 L 2.609375 -1.40625 L 2.078125 0 Z M 3.09375 -2.84375 L 5.375 -2.84375 L 4.21875 -5.8125 Z M 3.09375 -2.84375 "/></g></g></g><g fill="#3d6554" fill-opacity="1"><g transform="translate(211.99266, 276.273263)"><g><path d="M 2.921875 0 L 2.921875 -6.375 L 0.34375 -6.375 L 0.34375 -8.109375 L 7.328125 -8.109375 L 7.328125 -6.375 L 4.765625 -6.375 L 4.765625 0 Z M 2.921875 0 "/></g></g></g><g fill="#3d6554" fill-opacity="1"><g transform="translate(222.461726, 276.273263)"><g/></g></g><g fill="#3d6554" fill-opacity="1"><g transform="translate(227.980375, 276.273263)"><g><path d="M 3.796875 0.15625 C 3.117188 0.15625 2.535156 0.046875 2.046875 -0.171875 C 1.554688 -0.398438 1.175781 -0.71875 0.90625 -1.125 C 0.644531 -1.539062 0.515625 -2.023438 0.515625 -2.578125 L 2.3125 -2.578125 C 2.3125 -2.191406 2.441406 -1.890625 2.703125 -1.671875 C 2.972656 -1.460938 3.332031 -1.359375 3.78125 -1.359375 C 4.164062 -1.359375 4.46875 -1.429688 4.6875 -1.578125 C 4.914062 -1.734375 5.03125 -1.945312 5.03125 -2.21875 C 5.03125 -2.5 4.894531 -2.726562 4.625 -2.90625 C 4.351562 -3.082031 3.9375 -3.234375 3.375 -3.359375 C 2.414062 -3.554688 1.707031 -3.859375 1.25 -4.265625 C 0.800781 -4.679688 0.578125 -5.21875 0.578125 -5.875 C 0.578125 -6.613281 0.847656 -7.195312 1.390625 -7.625 C 1.929688 -8.050781 2.664062 -8.265625 3.59375 -8.265625 C 4.238281 -8.265625 4.796875 -8.15625 5.265625 -7.9375 C 5.734375 -7.71875 6.097656 -7.410156 6.359375 -7.015625 C 6.617188 -6.617188 6.75 -6.144531 6.75 -5.59375 L 4.984375 -5.59375 C 4.984375 -5.957031 4.863281 -6.242188 4.625 -6.453125 C 4.382812 -6.660156 4.050781 -6.765625 3.625 -6.765625 C 3.238281 -6.765625 2.929688 -6.6875 2.703125 -6.53125 C 2.484375 -6.382812 2.375 -6.175781 2.375 -5.90625 C 2.375 -5.65625 2.492188 -5.445312 2.734375 -5.28125 C 2.984375 -5.113281 3.421875 -4.957031 4.046875 -4.8125 C 5.054688 -4.570312 5.785156 -4.25 6.234375 -3.84375 C 6.679688 -3.4375 6.90625 -2.914062 6.90625 -2.28125 C 6.90625 -1.519531 6.628906 -0.921875 6.078125 -0.484375 C 5.523438 -0.0546875 4.765625 0.15625 3.796875 0.15625 Z M 3.796875 0.15625 "/></g></g></g><g fill="#3d6554" fill-opacity="1"><g transform="translate(238.194982, 276.273263)"><g><path d="M 4.6875 0.15625 C 3.875 0.15625 3.148438 -0.0195312 2.515625 -0.375 C 1.878906 -0.738281 1.382812 -1.234375 1.03125 -1.859375 C 0.675781 -2.492188 0.5 -3.222656 0.5 -4.046875 C 0.5 -4.878906 0.675781 -5.609375 1.03125 -6.234375 C 1.382812 -6.867188 1.875 -7.363281 2.5 -7.71875 C 3.132812 -8.082031 3.859375 -8.265625 4.671875 -8.265625 C 5.359375 -8.265625 5.988281 -8.132812 6.5625 -7.875 C 7.132812 -7.613281 7.613281 -7.242188 8 -6.765625 C 8.394531 -6.285156 8.671875 -5.722656 8.828125 -5.078125 L 6.921875 -5.078125 C 6.765625 -5.523438 6.488281 -5.875 6.09375 -6.125 C 5.707031 -6.382812 5.253906 -6.515625 4.734375 -6.515625 C 4.273438 -6.515625 3.863281 -6.410156 3.5 -6.203125 C 3.144531 -5.992188 2.867188 -5.703125 2.671875 -5.328125 C 2.472656 -4.960938 2.375 -4.535156 2.375 -4.046875 C 2.375 -3.566406 2.472656 -3.140625 2.671875 -2.765625 C 2.867188 -2.398438 3.144531 -2.113281 3.5 -1.90625 C 3.863281 -1.695312 4.269531 -1.59375 4.71875 -1.59375 C 5.25 -1.59375 5.71875 -1.726562 6.125 -2 C 6.53125 -2.269531 6.816406 -2.640625 6.984375 -3.109375 L 8.875 -3.109375 C 8.75 -2.453125 8.488281 -1.875 8.09375 -1.375 C 7.695312 -0.882812 7.207031 -0.503906 6.625 -0.234375 C 6.039062 0.0234375 5.394531 0.15625 4.6875 0.15625 Z M 4.6875 0.15625 "/></g></g></g><g fill="#3d6554" fill-opacity="1"><g transform="translate(250.32961, 276.273263)"><g><path d="M 0.109375 0 L 3.328125 -8.109375 L 5.125 -8.109375 L 8.34375 0 L 6.375 0 L 5.828125 -1.40625 L 2.609375 -1.40625 L 2.078125 0 Z M 3.09375 -2.84375 L 5.375 -2.84375 L 4.21875 -5.8125 Z M 3.09375 -2.84375 "/></g></g></g><g fill="#3d6554" fill-opacity="1"><g transform="translate(261.573624, 276.273263)"><g><path d="M 0.96875 0 L 0.96875 -8.109375 L 2.8125 -8.109375 L 2.8125 -1.71875 L 6.359375 -1.71875 L 6.359375 0 Z M 0.96875 0 "/></g></g></g><g fill="#3d6554" fill-opacity="1"><g transform="translate(271.036411, 276.273263)"><g><path d="M 0.96875 0 L 0.96875 -8.109375 L 6.296875 -8.109375 L 6.296875 -6.546875 L 2.796875 -6.546875 L 2.796875 -4.875 L 5.984375 -4.875 L 5.984375 -3.328125 L 2.796875 -3.328125 L 2.796875 -1.5625 L 6.421875 -1.5625 L 6.421875 0 Z M 0.96875 0 "/></g></g></g></svg>